<?xml version="1.0" encoding="UTF-8"?><!DOCTYPE svg PUBLIC "-//W3C//DTD SVG 1.1//EN" "http://www.w3.org/Graphics/SVG/1.1/DTD/svg11.dtd"><svg xmlns="http://www.w3.org/2000/svg"><symbol id="form-check" viewBox="0 0 216 146"><path d="M168.86 37.966l-11.08-11.08c-1.52-1.52-3.367-2.28-5.54-2.28-2.172 0-4.02.76-5.54 2.28L93.254 80.414 69.3 56.38c-1.52-1.522-3.367-2.282-5.54-2.282-2.172 0-4.02.76-5.54 2.28L47.14 67.46c-1.52 1.522-2.28 3.37-2.28 5.542 0 2.172.76 4.02 2.28 5.54l29.493 29.493 11.08 11.08c1.52 1.52 3.368 2.28 5.54 2.28 2.173 0 4.02-.76 5.54-2.28l11.082-11.08L168.86 49.05c1.52-1.52 2.283-3.37 2.283-5.54 0-2.174-.76-4.02-2.28-5.54z"/></symbol><symbol id="form-dropdown" viewBox="0 0 9 23"><style>.st0{fill:none;stroke:#006983;stroke-width:2;stroke-miterlimit:10}.Grafikformat_x0020_2{fill:#006983}.Grafikformat_x0020_4{fill:#8d1b3d}.st1{fill:#006983}.st2{fill:#e1e1e1}.st3{fill:#fff}.st4{fill:none;stroke:#006983;stroke-width:2}.st5{fill:#fcfcfc}.st6{fill:#dc5034}.st7,.st8{fill:none;stroke:#fff;stroke-width:2}.st8{stroke:#8d1b3d}.st9{fill:#8d1b3d}.st10{fill:#282828}.st11{fill:#fff;stroke:#282828;stroke-miterlimit:10}.st12{fill:#175e54}.st13{fill:#72ce9b}.st14{fill:#f0f0f0}.st15,.st16{fill:#fcfcfc;stroke:#282828;stroke-miterlimit:10}.st16{fill:none}.st17{display:none}.st18{display:inline}.st19{fill:none;stroke:#fff;stroke-miterlimit:10}.st20{display:inline;fill:url(#SVGID_9_)}.st21{fill:none;stroke:#dc5034}.st21,.st22,.st23,.st24,.st25{stroke-width:2;stroke-miterlimit:10}.st22{fill:#006983;stroke:#006983}.st23{fill:none;stroke:#fff}.st24,.st25{fill:none;stroke:#8d1b3d}.st25{fill:#8d1b3d}.st26{display:inline;fill:url(#SVGID_40_)}.st27,.st28{fill:none;stroke-miterlimit:10}.st27{display:inline;stroke:#fff;stroke-width:2}.st28{stroke:#767676;stroke-width:1.5}.st29{fill:none;stroke-width:2}.st29,.st30{display:inline;stroke:#e1e1e1;stroke-miterlimit:10}.st30,.st31,.st32{fill:none}.st32{stroke:#e1e1e1;stroke-miterlimit:10}.st33,.st34{display:inline;fill:none}.st34{fill:#72ce9b}.st35{fill:#ff8300;stroke:#b1b2b3;stroke-width:.3;stroke-miterlimit:10}.st36{stroke:#fcfcfc}.st36,.st37,.st38{fill:#72ce9b;stroke-miterlimit:10}.st37{stroke-linecap:round;stroke-linejoin:round;stroke:#fcfcfc}.st38{stroke:#b1b2b3;stroke-width:.3}.st39,.st40,.st41{stroke-width:2;stroke-miterlimit:10}.st39{stroke-linecap:round;stroke-linejoin:round;fill:#72ce9b;stroke:#fcfcfc}.st40{fill:#e98300;stroke:#fff}.st41{display:inline;fill:none;stroke:#dc5034}.st42{display:none;fill:none}.st43{display:inline;fill:url(#SVGID_81_)}.st44{opacity:5e-2;fill:#282828}.st45,.st46{display:inline;fill:#8d1b3d}.st46{fill:#006983}.st47,.st48{fill:#fff;stroke:#fff;stroke-width:2;stroke-miterlimit:10}.st48{fill:none;stroke:#dc5034;stroke-width:1.5}.st49{display:inline;fill:#282828}.st50{fill:#fff}.st50,.st51,.st52{display:inline}.st51{fill:#706f6f}.st52{fill:none;stroke:#fff;stroke-miterlimit:10}.st53{fill:#767676}.st54{fill:none;stroke:#767676;stroke-width:2;stroke-miterlimit:10}.st55,.st56{display:inline}.st55{stroke:#767676;stroke-width:2;stroke-miterlimit:10;fill:none}.st56,.st57{fill:#f0f0f0}.st57{stroke:#006983;stroke-width:2;stroke-miterlimit:10}.st58{fill:url(#SVGID_112_)}.st58,.st59,.st60{display:inline}.st59{stroke:#006983;stroke-width:2;stroke-miterlimit:10;fill:none}.st60{fill:#175e54}.st61{clip-path:url(#SVGID_124_)}.st62{clip-path:url(#SVGID_126_)}.st63{clip-path:url(#SVGID_128_)}.st64{clip-path:url(#SVGID_132_);fill:#fff}.st65{clip-path:url(#SVGID_134_);fill:#0071ad}.st66,.st67,.st68{clip-path:url(#SVGID_126_);fill:#0071ad}.st67,.st68{clip-path:url(#SVGID_136_)}.st68{fill:#fff}.st69{fill:#737372}.st70{clip-path:url(#SVGID_126_);fill:#2b2b2a}.st71{clip-path:url(#SVGID_138_)}.st71,.st72,.st73{fill:#2b2b2a}.st72{clip-path:url(#SVGID_140_)}.st73{clip-path:url(#SVGID_142_)}.st74{clip-path:url(#SVGID_144_);fill:#eb6429}.st75{clip-path:url(#SVGID_152_)}.st76{clip-path:url(#SVGID_154_)}.st77{clip-path:url(#SVGID_156_)}.st78{clip-path:url(#SVGID_158_)}.st79{fill:#939598}.st80{clip-path:url(#SVGID_156_);fill:#adc1e6}.st81{clip-path:url(#SVGID_160_)}.st82,.st83{clip-path:url(#SVGID_156_);fill:#fff}.st83{clip-path:url(#SVGID_164_)}.st84{filter:url(#Adobe_OpacityMaskFilter)}.st85,.st86{clip-path:url(#SVGID_164_)}.st86{mask:url(#SVGID_165_)}.st87{opacity:.75;clip-path:url(#SVGID_169_)}.st88{filter:url(#Adobe_OpacityMaskFilter_1_)}.st89,.st90{clip-path:url(#SVGID_171_)}.st90{mask:url(#SVGID_172_)}.st91{opacity:.75;clip-path:url(#SVGID_176_)}.st92{fill:#ab972c}.st93{filter:url(#Adobe_OpacityMaskFilter_2_)}.st94,.st95{clip-path:url(#SVGID_178_)}.st95{mask:url(#SVGID_179_)}.st96{opacity:.75;clip-path:url(#SVGID_183_)}.st97{clip-path:url(#SVGID_178_);fill:#ab972c}.st98{filter:url(#Adobe_OpacityMaskFilter_3_)}.st100,.st99{clip-path:url(#SVGID_185_)}.st100{mask:url(#SVGID_186_)}.st101{opacity:.75;clip-path:url(#SVGID_190_)}.st102{filter:url(#Adobe_OpacityMaskFilter_4_)}.st103,.st104{clip-path:url(#SVGID_192_)}.st104{mask:url(#SVGID_193_)}.st105{opacity:.75;clip-path:url(#SVGID_197_)}.st106{clip-path:url(#SVGID_199_)}.st107{clip-path:url(#SVGID_201_)}.st108{fill:#adc1e6}.st108,.st109{clip-path:url(#SVGID_203_)}.st110{filter:url(#Adobe_OpacityMaskFilter_5_)}.st111,.st112{clip-path:url(#SVGID_205_)}.st112{mask:url(#SVGID_206_)}.st113{opacity:.75;clip-path:url(#SVGID_210_)}.st114{clip-path:url(#SVGID_205_);fill:#ab972c}.st115{clip-path:url(#SVGID_212_)}.st116{fill:#ec008c}.st117{filter:url(#Adobe_OpacityMaskFilter_6_)}.st118,.st119{clip-path:url(#SVGID_216_)}.st119{mask:url(#SVGID_217_)}.st120{opacity:.75;clip-path:url(#SVGID_221_)}.st121{clip-path:url(#SVGID_203_);fill:#fff}.st122{filter:url(#Adobe_OpacityMaskFilter_7_)}.st123,.st124{clip-path:url(#SVGID_223_)}.st124{mask:url(#SVGID_224_)}.st125{opacity:.75;clip-path:url(#SVGID_228_)}.st126{clip-path:url(#SVGID_230_);fill:#ec008c}.st127,.st128{clip-path:url(#SVGID_232_);fill:#0073ae}.st128{fill:#fff}.st129{clip-path:url(#SVGID_203_);fill:none;stroke:#fff;stroke-width:2;stroke-miterlimit:10}.st130{clip-path:url(#SVGID_234_)}.st131{clip-path:url(#SVGID_236_)}.st132{clip-path:url(#SVGID_238_)}.st133{clip-path:url(#SVGID_240_)}.st134{clip-path:url(#SVGID_238_);fill:#adc1e6}.st135{clip-path:url(#SVGID_242_)}.st136{fill:#b63e8b}.st137{filter:url(#Adobe_OpacityMaskFilter_8_)}.st138,.st139{clip-path:url(#SVGID_246_)}.st139{mask:url(#SVGID_247_)}.st140{opacity:.75;clip-path:url(#SVGID_251_)}.st141{clip-path:url(#SVGID_246_);fill:#ab972c}.st142{clip-path:url(#SVGID_238_);fill:#fff}.st143{fill:#0073ae}.st144{filter:url(#Adobe_OpacityMaskFilter_9_)}.st145,.st146{clip-path:url(#SVGID_253_)}.st145{fill:url(#SVGID_255_)}.st146{mask:url(#SVGID_254_)}.st147{clip-path:url(#SVGID_257_);fill:#fff}.st148,.st149{clip-path:url(#SVGID_253_);fill:#0073ae}.st149{clip-path:url(#SVGID_238_)}.st150{clip-path:url(#SVGID_259_)}.st151,.st152{clip-path:url(#SVGID_261_)}.st152{fill:#adc1e6}.st153{clip-path:url(#SVGID_263_)}.st154,.st155{clip-path:url(#SVGID_261_);fill:#fff}.st155{fill:#0073ae}.st156{stroke-dasharray:0,4.061}.st156,.st157{clip-path:url(#SVGID_261_);fill:none;stroke:#fff;stroke-width:1.97;stroke-linecap:round;stroke-linejoin:round}.st158{clip-path:url(#SVGID_267_);fill:#fff}.st159,.st160{clip-path:url(#SVGID_269_);fill:#0073ae}.st160{fill:#fff}.st161,.st162{clip-path:url(#SVGID_271_);fill:#b63e8b}.st162{fill:none;stroke:#fff;stroke-width:.273;stroke-miterlimit:300}.st163{fill:#20c4f4}.st164{display:inline;fill:url(#SVGID_274_)}.st165{fill:#d7d7d7}.st166{clip-path:url(#SVGID_307_);fill:url(#SVGID_308_)}.st167{fill:#ff8300;stroke:#e1e1e1;stroke-width:.3;stroke-miterlimit:10}.st168,.st169,.st170,.st171{fill:#72ce9b;stroke:#e1e1e1;stroke-miterlimit:10}.st169{stroke-linecap:round;stroke-linejoin:round}.st170{stroke-width:.3}.st171{stroke-width:2;stroke-linecap:round;stroke-linejoin:round}.st172{fill:url(#SVGID_349_)}.st172,.st173,.st174{display:inline}.st173{fill:#e1e1e1}.st174{fill:url(#SVGID_356_)}.st175,.st176{fill:none;stroke:#f0f0f0;stroke-width:2;stroke-miterlimit:10}.st176{stroke:#006983;stroke-width:4}</style><symbol id="Ny_symbol" viewBox="-4.4 -4.3 13.8 13.5"><path class="st0" d="M-4.4 2.4H7.3M2 8.5l6-6.1-6-6"/></symbol><g id="Header_EN"><g id="Formskisser_1_"><g id="_x32_.4-Fairtrade-p&#xE5;-Jobbet_1_" transform="translate(-574 -1941)"><g id="Formul&#xE4;r-Copy-8_1_" transform="translate(188 1877)"><g id="Lista_1_" transform="translate(0 49)"><path id="icon--arrows--dropdown_1_" class="st53" d="M386 19.5l1.4 1.5 3.1-3 3.1 3 1.4-1.5-4.5-4.5-4.5 4.5zm9 14l-1.4-1.5-3.1 3-3.1-3-1.4 1.5 4.5 4.5 4.5-4.5z"/></g></g></g></g></g></symbol><symbol id="icon-error" viewBox="0 0 35 35"><circle cx="17.5" cy="17.5" r="17.5"/><path d="M27.523 11.802l-4.242-4.243-5.698 5.699-5.698-5.699-4.242 4.243 5.698 5.698-5.698 5.699 4.242 4.242 5.698-5.699 5.698 5.699 4.242-4.242-5.698-5.699z"/></symbol><symbol id="icon-status" viewBox="0 0 35 35"><circle cx="17.5" cy="17.5" r="17.5"/><circle cx="17.634" cy="8.893" r="2.5"/><path d="M20.292 26.453V13.974h-7.156v2.305h2.406v10.174h-2.625v2.305h10v-2.305z"/></symbol><symbol id="icon-warning" viewBox="8.2 -2.8 34.7 30.8"><style>.st0{fill:#646363}</style><path class="st0" d="M42.7 26.4l-7.2-12.7c-.5-.9-1.3-2.3-1.8-3.2L26.5-2.2c-.5-.8-1.3-.8-1.8 0l-7.2 12.7c-.5.9-1.3 2.3-1.8 3.2L8.4 26.4c-.5.9 0 1.6 1.1 1.6h32.2c1 0 1.5-.7 1-1.6zm-17.2-3.1c-1 0-1.9-.8-1.9-1.9 0-1 .8-1.9 1.9-1.9s1.9.8 1.9 1.9c0 1-.9 1.9-1.9 1.9zm0-6.1s-2.1-6.9-2.1-8.1c.1-1.1 1-2.1 2.1-2.1s2.1.9 2.1 2.1c0 1.2-2.1 8.1-2.1 8.1z"/></symbol></svg>