<?xml version="1.0" encoding="utf-8"?>
<!-- Generator: Adobe Illustrator 19.1.0, SVG Export Plug-In . SVG Version: 6.00 Build 0)  -->
<svg version="1.1" id="Layer_1" xmlns="http://www.w3.org/2000/svg" xmlns:xlink="http://www.w3.org/1999/xlink" x="0px" y="0px"
	 viewBox="8.2 -2.8 34.7 30.8" style="enable-background:new 8.2 -2.8 34.7 30.8;" xml:space="preserve">
<style type="text/css">
	.st0{fill:#646363;}
</style>
<path class="st0" d="M42.7,26.4l-7.2-12.7c-0.5-0.9-1.3-2.3-1.8-3.2L26.5-2.2C26-3,25.2-3,24.7-2.2l-7.2,12.7
	c-0.5,0.9-1.3,2.3-1.8,3.2L8.4,26.4c-0.5,0.9,0,1.6,1.1,1.6h14.1c1.1,0,2.9,0,4,0h14.1C42.7,28,43.2,27.3,42.7,26.4z M25.5,23.3
	c-1,0-1.9-0.8-1.9-1.9c0-1,0.8-1.9,1.9-1.9s1.9,0.8,1.9,1.9C27.4,22.4,26.5,23.3,25.5,23.3z M25.5,17.2c0,0-2.1-6.9-2.1-8.1
	C23.5,8,24.4,7,25.5,7c1.1,0,2.1,0.9,2.1,2.1C27.6,10.3,25.5,17.2,25.5,17.2z"/>
</svg>
